<svg xmlns="http://www.w3.org/2000/svg" width="24" height="21" viewBox="0 0 24 21">
  <g id="Group_765" data-name="Group 765" transform="translate(-356 -155)">
    <g id="Polygon_11" data-name="Polygon 11" transform="translate(356 155)" fill="#fff">
      <path d="M 22.27682304382324 20 L 1.723177194595337 20 L 12 2.015559911727905 L 22.27682304382324 20 Z" stroke="none"/>
      <path d="M 12 4.031137466430664 L 3.44636344909668 19 L 20.55363464355469 19 L 12 4.031137466430664 M 12 0 L 24 21 L 0 21 L 12 0 Z" stroke="none" fill="#f92c2c"/>
    </g>
    <path id="This_is_a_new_servic" data-name="This is a new servic" d="M3.147-9.4v3.918q0,.623-.059,1.223T2.929-2.988h-1.1q-.1-.671-.158-1.271T1.609-5.481V-9.4ZM1.359-.426a1.088,1.088,0,0,1,.076-.4.969.969,0,0,1,.211-.329,1.038,1.038,0,0,1,.32-.219.964.964,0,0,1,.4-.082.948.948,0,0,1,.389.082,1,1,0,0,1,.317.219,1.04,1.04,0,0,1,.211.329,1.048,1.048,0,0,1,.079.4,1.041,1.041,0,0,1-.079.408,1.05,1.05,0,0,1-.211.325.953.953,0,0,1-.317.216A.983.983,0,0,1,2.362.6a1,1,0,0,1-.4-.079.991.991,0,0,1-.32-.216.977.977,0,0,1-.211-.325A1.08,1.08,0,0,1,1.359-.426Z" transform="translate(365.642 172.773)"/>
  </g>
</svg>
