<svg width="26" height="23" viewBox="0 0 26 23" fill="none" xmlns="http://www.w3.org/2000/svg">
<path fill-rule="evenodd" clip-rule="evenodd" d="M15.2043 14.0498C14.7771 14.0192 14.4035 14.3494 14.3731 14.7835L14.0449 19.5205C14.0144 19.9548 14.3395 20.335 14.7665 20.3656C15.1933 20.3962 15.5676 20.0663 15.5974 19.6318L15.9262 14.8951C15.9564 14.4608 15.6317 14.0806 15.2043 14.0496V14.0498ZM6.58637 14.1089C6.16406 14.1791 5.87436 14.5882 5.94369 15.0175L6.69698 19.7039C6.76629 20.1336 7.16834 20.4278 7.59093 20.3573C8.01362 20.2871 8.30294 19.8781 8.2339 19.4484L7.48032 14.7621C7.4111 14.3326 7.00905 14.0387 6.58637 14.1089V14.1089ZM10.7948 14.0498C10.3674 14.0807 10.0432 14.4609 10.0731 14.8951L10.401 19.6319C10.4315 20.0664 10.8051 20.3963 11.2325 20.3656C11.6599 20.3351 11.984 19.9548 11.9542 19.5205L11.6256 14.7836C11.5958 14.3494 11.2212 14.0192 10.7948 14.0498L10.7948 14.0498ZM19.4127 14.1089C18.9904 14.0387 18.5878 14.3326 18.5187 14.7621L17.7657 19.4484C17.6967 19.8782 17.9855 20.2869 18.4081 20.3574C18.8308 20.4278 19.2328 20.1334 19.3021 19.7039L20.0554 15.0176C20.1241 14.5881 19.8354 14.1791 19.4127 14.1089L19.4127 14.1089ZM16.6105 0.139353C16.1215 0.426306 15.9523 1.06806 16.2348 1.56531L19.8519 7.93532H22.2232L18.0126 0.520997C17.7303 0.0237424 17.0994 -0.148031 16.6105 0.139209L16.6105 0.139353ZM9.39089 0.139353C9.87994 0.426306 10.0491 1.06806 9.76666 1.56531L6.14953 7.93556H3.77822L7.98877 0.521237C8.27045 0.0239821 8.90197 -0.147791 9.39093 0.139449L9.39089 0.139353ZM0.795416 8.78823H25.2046C25.6426 8.78823 26 9.15203 26 9.5967V10.9774C26 11.4218 25.6426 11.7858 25.2046 11.7858L0.795416 11.7859C0.357443 11.7859 0 11.4219 0 10.9775V9.59679C0.000184349 9.15232 0.357702 8.78823 0.795416 8.78823V8.78823ZM23.8328 12.6385L22.22 20.8342C21.9698 22.1063 20.8981 22.9999 19.6222 22.9999L6.47826 23C5.20237 23 4.13026 22.1066 3.87996 20.8343L2.26813 12.6386L23.8328 12.6385Z" fill="white"/>
</svg>
