<svg width="125" height="40" viewBox="0 0 125 40" fill="none" xmlns="http://www.w3.org/2000/svg">
<path fill-rule="evenodd" clip-rule="evenodd" d="M90.6255 10L88.75 6.56105L90.6255 3.125H94.3772L96.25 6.56105L94.3752 10H90.6255" fill="#9E9F9E"/>
<path fill-rule="evenodd" clip-rule="evenodd" d="M85.0003 20L83.125 16.5625L85.0003 13.125H88.7497L90.625 16.5625L88.7497 20H85.0003" fill="#9E9F9E"/>
<path fill-rule="evenodd" clip-rule="evenodd" d="M113.751 10L111.875 6.55959L113.751 3.125H117.502L119.375 6.55959L117.501 10H113.751" fill="#9E9F9E"/>
<path fill-rule="evenodd" clip-rule="evenodd" d="M119.375 20L117.5 16.5632L119.375 13.125H123.125L125 16.5632L123.124 20H119.375" fill="#9E9F9E"/>
<path fill-rule="evenodd" clip-rule="evenodd" d="M96.2493 40L94.375 36.5629L96.2493 33.125H99.9993L101.875 36.5629L99.9993 40H96.2493" fill="#9E9F9E"/>
<path fill-rule="evenodd" clip-rule="evenodd" d="M108.124 40L106.25 36.5629L108.124 33.125H111.874L113.75 36.5629L111.874 40H108.124" fill="#9E9F9E"/>
<path fill-rule="evenodd" clip-rule="evenodd" d="M101.875 16.875L100 13.4371L101.875 10H105.626L107.5 13.4371L105.626 16.875H101.877" fill="#9E9F9E"/>
<path fill-rule="evenodd" clip-rule="evenodd" d="M96.2493 26.875L94.375 23.4364L96.2493 20H99.9993L101.875 23.4364L99.9993 26.875H96.2493" fill="#9E9F9E"/>
<path fill-rule="evenodd" clip-rule="evenodd" d="M108.124 26.875L106.25 23.4364L108.124 20H111.874L113.75 23.4364L111.874 26.875H108.124" fill="#9E9F9E"/>
<path fill-rule="evenodd" clip-rule="evenodd" d="M90.6255 16.875L88.75 13.4371L90.6255 10H94.3772L96.25 13.4371L94.3752 16.875H90.6255" fill="#6CB644"/>
<path fill-rule="evenodd" clip-rule="evenodd" d="M101.875 10L100 6.56105L101.875 3.125H105.627L107.5 6.56105L105.627 10H101.877" fill="#6CB644"/>
<path fill-rule="evenodd" clip-rule="evenodd" d="M90.6255 29.9985L88.75 26.5618L90.6255 23.125V23.125V23.125H94.3772L96.25 26.5632L94.3752 30H90.6255" fill="#6CB644"/>
<path fill-rule="evenodd" clip-rule="evenodd" d="M113.751 16.875L111.875 13.4371L113.751 10H117.502L119.375 13.4371L117.501 16.875H113.751" fill="#6CB644"/>
<path fill-rule="evenodd" clip-rule="evenodd" d="M101.875 36.875L100 33.4364L101.875 30H105.626L107.5 33.4364L105.626 36.875H101.877" fill="#6CB644"/>
<path fill-rule="evenodd" clip-rule="evenodd" d="M113.751 30L111.875 26.5632L113.751 23.125H117.502L119.375 26.5632L117.501 30H113.751" fill="#6CB644"/>
<path fill-rule="evenodd" clip-rule="evenodd" d="M96.2493 6.875L94.375 3.43786L96.2493 0H99.9993L101.875 3.43786L99.9993 6.875H96.2493" fill="#ABCC3A"/>
<path fill-rule="evenodd" clip-rule="evenodd" d="M108.124 6.875L106.25 3.43859L108.124 0H111.874L113.75 3.43859L111.874 6.875H108.124" fill="#ABCC3A"/>
<path fill-rule="evenodd" clip-rule="evenodd" d="M85.0005 26.875L83.125 23.4371L85.0005 20H88.7502L90.625 23.4371L88.7502 26.875H85.0005" fill="#ABCC3A"/>
<path fill-rule="evenodd" clip-rule="evenodd" d="M90.6255 36.875L88.75 33.4364L90.6255 30H94.3772L96.25 33.4364L94.3752 36.875H90.6255" fill="#ABCC3A"/>
<path fill-rule="evenodd" clip-rule="evenodd" d="M119.375 26.875L117.5 23.4364L119.375 20H123.125L125 23.4364L123.124 26.875H119.375" fill="#ABCC3A"/>
<path fill-rule="evenodd" clip-rule="evenodd" d="M113.751 36.875L111.875 33.4364L113.751 30H117.502L119.375 33.4364L117.501 36.875H113.751" fill="#ABCC3A"/>
<path fill-rule="evenodd" clip-rule="evenodd" d="M99.9993 20H96.2493L94.375 16.5632L96.2493 13.125H99.9993L101.875 16.5632L99.9993 20" fill="#ABCC3A"/>
<path fill-rule="evenodd" clip-rule="evenodd" d="M111.874 20H108.124L106.25 16.5632L108.124 13.125H111.874L113.75 16.5632L111.874 20" fill="#ABCC3A"/>
<path fill-rule="evenodd" clip-rule="evenodd" d="M101.875 30L100 26.5632L101.875 23.125H105.626L107.5 26.5632L105.626 30H101.877" fill="#ABCC3A"/>
<path fill-rule="evenodd" clip-rule="evenodd" d="M99.9993 13.75H96.2493L94.375 10.3132L96.2493 6.875H99.9993L101.875 10.3132L99.9993 13.75" fill="#EAE522"/>
<path fill-rule="evenodd" clip-rule="evenodd" d="M90.6255 23.125L88.75 19.6882L90.6255 16.25H94.3772L96.25 19.6882L94.3752 23.125H90.6255" fill="#EAE522"/>
<path fill-rule="evenodd" clip-rule="evenodd" d="M111.874 13.75H108.124L106.25 10.314L107.438 8.13234L108.125 6.875V6.875V6.875H111.874L113.75 10.314L111.874 13.75" fill="#EAE522"/>
<path fill-rule="evenodd" clip-rule="evenodd" d="M99.9993 33.125H96.2493L94.375 29.6886L96.2493 26.25H99.9993L101.875 29.6886L99.9993 33.125" fill="#EAE522"/>
<path fill-rule="evenodd" clip-rule="evenodd" d="M113.751 23.125L111.875 19.6868L113.751 16.25H117.502L119.375 19.6868L117.501 23.125H113.751" fill="#EAE522"/>
<path fill-rule="evenodd" clip-rule="evenodd" d="M111.874 33.125H108.124L106.25 29.6886L108.124 26.25H111.874L113.75 29.6886L111.874 33.125" fill="#EAE522"/>
<path fill-rule="evenodd" clip-rule="evenodd" d="M8.45037 15.625V8.25063H1.54963V15.625H0V0.625H1.54963V6.86834H8.45037V0.625H10V15.625H8.45037" fill="white"/>
<path fill-rule="evenodd" clip-rule="evenodd" d="M24.073 15.625V2.93024L20.1941 11.2884C19.9605 11.7871 19.838 12.3304 19.835 12.8809V14.2427H18.2624V12.8809C18.2584 12.3313 18.1377 11.7887 17.9082 11.2891L13.9875 2.93024V15.625H12.5V0.625H14.4076L19.1039 10.4087L23.7174 0.625H25.625V15.625H24.073" fill="white"/>
<path fill-rule="evenodd" clip-rule="evenodd" d="M30.625 15.625V0.625H32.2V14.2427H38.125V15.625H30.625" fill="white"/>
<path fill-rule="evenodd" clip-rule="evenodd" d="M45.9927 9.7814H42.605C42.2449 9.74019 41.8835 9.84549 41.5966 10.0752L41.213 10.4101C40.9808 10.587 40.8396 10.865 40.8301 11.1641V12.3379C40.8314 12.6284 40.9664 12.9008 41.1932 13.0706L41.6566 13.4699C41.9352 13.6652 42.2704 13.7538 42.605 13.7205H45.9927V9.7814ZM46.7191 14.9991H42.1813C41.5986 15.0158 41.0307 14.8072 40.5876 14.4136L40.0426 13.889C39.5982 13.5191 39.3508 12.9507 39.3769 12.3597V11.1435C39.351 10.5523 39.5983 9.98384 40.0426 9.61353L40.6469 9.04715C41.0994 8.6608 41.6757 8.46635 42.2604 8.50272H45.9914V7.45493C45.9729 7.05991 45.7794 6.69605 45.4675 6.46943L45.1268 6.15509C44.7936 5.78794 44.3155 5.60203 43.8322 5.65173H40.4255V4.37738H44.4032C44.9559 4.35092 45.4973 4.54579 45.9158 4.92181L46.7423 5.6758C47.2665 6.05215 47.5533 6.69403 47.4918 7.35298V14.1431L46.7191 14.9991Z" fill="white"/>
<path fill-rule="evenodd" clip-rule="evenodd" d="M56.0145 15V8.23428C56.0303 7.62572 55.7618 7.04734 55.295 6.68456L54.8747 6.28687C54.4881 5.88556 53.9584 5.67272 53.4147 5.70023H50.8547V15H49.375V5.23956L50.1351 4.3812H54.1349C54.6912 4.33668 55.2406 4.53342 55.6544 4.92537L56.9381 6.14038C57.3163 6.45127 57.5252 6.93626 57.4976 7.4389V15H56.0179" fill="white"/>
<path fill-rule="evenodd" clip-rule="evenodd" d="M66.5724 6.32341H63.673C63.1269 6.29122 62.5882 6.46303 62.162 6.8054L61.5948 7.22441C61.149 7.58504 60.9063 8.13921 60.9438 8.71075V11.917C60.9058 12.4886 61.1486 13.043 61.5948 13.4033L62.162 13.8238C62.5885 14.1656 63.127 14.3371 63.673 14.305H66.5696L66.5724 6.32341ZM67.3273 15.625H62.9829C62.2833 15.6265 61.6089 15.365 61.0939 14.8924L60.0445 14.0325C59.5457 13.5656 59.3033 12.8872 59.3936 12.2107V8.41837C59.3036 7.74164 59.5459 7.06311 60.0445 6.59583L61.0939 5.7373C61.6005 5.2649 62.2683 5.00273 62.9616 5.00404H66.5714V0.625H68.125V14.7672L67.3273 15.625Z" fill="white"/>
<path fill-rule="evenodd" clip-rule="evenodd" d="M7.53329 24.0801C7.56234 23.5982 7.36231 23.1312 6.99492 22.8232L6.45725 22.3413C6.03545 22.0076 5.49681 21.8638 4.96729 21.9435H1.51123V28.0808H4.96729C5.49681 28.1606 6.03545 28.0168 6.45725 27.6831L6.99492 27.2224C7.36265 26.9055 7.56201 26.4322 7.53329 25.9442V24.0801ZM7.74275 35.6229V34.1579C7.75478 33.6877 7.64048 33.2229 7.41204 32.8133L5.60815 29.4021H1.51093V35.6243H0V21.4842L0.827833 20.625H5.38021C6.89115 20.625 7.18131 21.0857 8.25735 22.0284C8.82413 22.4271 9.15159 23.0903 9.12644 23.7885V26.3023C9.16052 27.0073 8.82148 27.6775 8.23638 28.0617L7.13936 28.9633L9.02296 32.4403C9.27379 32.9464 9.39405 33.5086 9.37255 34.0744V35.625L7.74275 35.6229Z" fill="white"/>
<path fill-rule="evenodd" clip-rule="evenodd" d="M18.4531 28.5132C18.5016 27.9563 18.2731 27.4106 17.839 27.0461L17.3093 26.6326C16.9158 26.2872 16.3977 26.1088 15.8692 26.1366H15.3818C14.8531 26.1087 14.3347 26.2871 13.9409 26.6326L13.4113 27.0461C12.985 27.4148 12.7646 27.9598 12.8179 28.5132V29.6107H18.4531V28.5132ZM19.1747 30.8494H12.8187V31.986C12.7654 32.5394 12.9858 33.0844 13.412 33.4531L13.9417 33.8457C14.3453 34.1726 14.8585 34.3423 15.3825 34.3221H19.3865V35.625H14.6625C13.9954 35.6187 13.357 35.3589 12.8831 34.9006L11.866 34.0532C11.3945 33.5746 11.1756 32.9106 11.2726 32.2536V28.3686C11.1755 27.7118 11.3945 27.0479 11.866 26.5698L12.8831 25.721C13.3575 25.2642 13.9954 25.0056 14.6618 25H16.5686C17.2357 25.006 17.8742 25.2653 18.3487 25.7231L19.3651 26.5718C19.8448 27.046 20.0719 27.7105 19.9799 28.3707V30.0243L19.1747 30.8494Z" fill="white"/>
<path fill-rule="evenodd" clip-rule="evenodd" d="M28.4364 26.3203H25.5457C24.9999 26.2883 24.4617 26.46 24.0359 26.8021L23.4691 27.2196C23.0237 27.5795 22.7812 28.1326 22.8187 28.703V31.9017C22.782 32.4719 23.0244 33.0247 23.4691 33.3851L24.0359 33.8026C24.4618 34.1444 25 34.3161 25.5457 34.2844H28.4364V26.3203ZM29.2161 38.6768L28.3355 39.4538C27.9001 39.8287 27.3373 40.0233 26.7626 39.9978H22.2119V38.6768H26.154C26.6547 38.7139 27.1466 38.5306 27.5001 38.1752L27.8983 37.8623C28.2268 37.6401 28.4294 37.2752 28.4439 36.8797V35.6046H24.8546C24.1552 35.6059 23.481 35.3444 22.9665 34.8721L21.9186 34.0152C21.421 33.5481 21.179 32.871 21.2682 32.1955V28.4112C21.1792 27.7359 21.4212 27.0591 21.9186 26.5922L22.9672 25.7347C23.4733 25.2627 24.1404 25.0001 24.8334 25H29.9919V37.0019C30.0537 37.6586 29.7576 38.2979 29.2161 38.6768V38.6768Z" fill="white"/>
<path fill-rule="evenodd" clip-rule="evenodd" d="M31.9238 35.6249H33.703V24.935H31.9238V35.6249ZM31.875 23.2517H33.75V21.25H31.875V23.2517Z" fill="white"/>
<path fill-rule="evenodd" clip-rule="evenodd" d="M43.7936 34.5763L42.953 35.2252C42.5423 35.4963 42.0582 35.6355 41.5658 35.6244H35.85V34.3046H41.208C41.543 34.3319 41.8773 34.2431 42.1543 34.0533L42.5093 33.7802C42.7387 33.5952 42.8764 33.3203 42.887 33.0265V32.2091C42.887 31.5184 42.5512 31.2042 41.6261 31.12L37.8442 30.7435C36.2256 30.5758 35.637 29.6742 35.637 28.5851V27.4528C35.5702 26.9186 35.785 26.3879 36.205 26.0494L37.0456 25.3998C37.4567 25.1285 37.9413 24.9892 38.4342 25.0007H43.7091V26.3205H38.792C38.4571 26.2925 38.1229 26.3813 37.8464 26.5717L37.4914 26.8435C37.2619 27.0285 37.1241 27.3037 37.1137 27.5978V28.2475C37.1137 28.8972 37.4495 29.2114 38.332 29.2949L41.9051 29.6487C43.712 29.8377 44.363 30.6133 44.363 31.7859V33.168C44.4298 33.7022 44.215 34.2329 43.795 34.5713" fill="white"/>
<path fill-rule="evenodd" clip-rule="evenodd" d="M48.9417 35.6187C48.3456 35.6604 47.7541 35.4946 47.2802 35.1528L46.3952 34.4236C45.8474 34.0349 45.5593 33.4035 45.6377 32.7632V23.125H47.2343V25.349H50.6221V26.6248H47.2372V32.6189C47.2501 33.0559 47.4819 33.4616 47.8627 33.7135L48.1215 33.9187C48.5075 34.2487 49.0278 34.4041 49.546 34.3442H50.625V35.62H48.9417" fill="white"/>
<path fill-rule="evenodd" clip-rule="evenodd" d="M54.5696 26.3228V35.625H53.125V25.8621L53.8691 25H58.125V26.32H54.5696" fill="white"/>
<path fill-rule="evenodd" clip-rule="evenodd" d="M67.3776 38.6767L66.5382 39.4538C66.1236 39.8289 65.5873 40.0236 65.0396 39.9977H60.6014V38.6767H64.4595C64.9354 38.7129 65.4027 38.5297 65.7386 38.1752L66.1188 37.8622C66.4316 37.6399 66.6244 37.275 66.6381 36.8796V35.6046H63.3601C62.8037 35.6482 62.2545 35.4513 61.8406 35.0599L60.5616 33.8477C60.1838 33.5372 59.975 33.0532 60.0024 32.5515V25H61.4814V31.754C61.4656 32.3615 61.734 32.9388 62.2006 33.301L62.6206 33.698C63.0066 34.099 63.536 34.3117 64.0793 34.2843H66.6381V25H68.1177V37.0018C68.1749 37.6583 67.8914 38.2964 67.3749 38.6739" fill="white"/>
</svg>
